PathFileType	4	(X/Y/Z)	/Users/niels/Desktop/University/Third Semester/Perception and Action/Exam/Gymnastics Motion Tracking/Code for Gym Tracking/Analyzed Data/Webcam_Backflip/id17_1_trajectory_Sports2D/id17_1_trajectory_Sports2D_px_person00.trc
DataRate	CameraRate	NumFrames	NumMarkers	Units	OrigDataRate	OrigDataStartFrame	OrigNumFrames
29.702970297029704	29.702970297029704	11	22	m	29.702970297029704	75	101
Frame#	Time	Hip			RHip			RKnee			RAnkle			RBigToe			RSmallToe			RHeel			LHip			LKnee			LAnkle			LBigToe			LSmallToe			LHeel			Neck			Head			Nose			RShoulder			RElbow			RWrist			LShoulder			LElbow			LWrist		
		X1	Y1	Z1	X2	Y2	Z2	X3	Y3	Z3	X4	Y4	Z4	X5	Y5	Z5	X6	Y6	Z6	X7	Y7	Z7	X8	Y8	Z8	X9	Y9	Z9	X10	Y10	Z10	X11	Y11	Z11	X12	Y12	Z12	X13	Y13	Z13	X14	Y14	Z14	X15	Y15	Z15	X16	Y16	Z16	X17	Y17	Z17	X18	Y18	Z18	X19	Y19	Z19	X20	Y20	Z20	X21	Y21	Z21	X22	Y22	Z22
75	2.525	0.9997910072986488	-0.644128444944866	0.0	0.973195127749346	-0.6425258009524898	0.0	0.9978141506284943	-0.8406390618085693	0.0	0.9835065906758216	-1.0449829318055475	0.0	1.061063378398273	-1.07438303379147	0.0	1.0368163608915812	-1.084901442427438	0.0	0.9695635027354953	-1.0684143975255755	0.0	1.0290984908958436	-0.6448643200873098	0.0	0.9955431856339801	-0.837792891904819	0.0	0.9686147827071063	-1.0375740731811838	0.0	1.0468979040947701	-1.0669297329731733	0.0	1.0417906504144567	-1.0674282760386502	0.0	0.9447737739932514	-1.060948311616239	0.0	1.0330417002503254	-0.34065103033182087	0.0	1.0534338269395547	-0.2170482128116783	0.0	1.0640628904621194	-0.28289824095808175	0.0	0.9632881518223744	-0.3939900169588352	0.0	0.9216866242518088	-0.5304532568324939	0.0	0.9329527352849345	-0.6727216430422523	0.0	1.07980849194335	-0.3941471526681436	0.0	1.0928293963054996	-0.5204815648465467	0.0	1.1207527611090888	-0.6412470050933715	0.0
76	2.5586666666666664	0.9986930355640062	-0.6428906160255028	0.0	0.9745522203112245	-0.6417704415880031	0.0	1.00464604738824	-0.8396521974561098	0.0	0.979777738631146	-1.0438082397671713	0.0	1.059760205645646	-1.076022791460272	0.0	1.0352895146389547	-1.0851221982546886	0.0	0.9633757216502813	-1.0676928162864123	0.0	1.025465139414219	-0.6445239327591633	0.0	0.9883175529540436	-0.8376730054562549	0.0	0.9696755815203449	-1.0390305110731368	0.0	1.0493980219253718	-1.0681197947669878	0.0	1.0437738194211121	-1.0662147635455805	0.0	0.9479754796427142	-1.0633488987977244	0.0	1.0371684605462763	-0.3445639937684469	0.0	1.061164532451549	-0.22085308984637217	0.0	1.0715151131826008	-0.28637161488442076	0.0	0.970839996717376	-0.3959276033711401	0.0	0.9257673402208211	-0.5305129406245214	0.0	0.9315039758510395	-0.6735798821033141	0.0	1.0773418681645703	-0.39653956113155914	0.0	1.0884080494418213	-0.5221220938853731	0.0	1.1165370066321876	-0.6407708751003226	0.0
77	2.592333333333333	0.9983296594955421	-0.6411462003659859	0.0	0.9761450459671142	-0.6405635666091767	0.0	1.009634455881414	-0.838007601639166	0.0	0.9752919348219818	-1.0421312846556627	0.0	1.0574382108049178	-1.0772950252121145	0.0	1.032652793074444	-1.0850710486741377	0.0	0.9574425936925743	-1.067466580383613	0.0	1.0228921284881232	-0.6434921134320354	0.0	0.9840333410441392	-0.8365904692657363	0.0	0.9704533554388138	-1.0389045164818338	0.0	1.0511429596273618	-1.0690896565336923	0.0	1.04487354228491	-1.0649905221286347	0.0	0.9506798553784995	-1.0647362725730791	0.0	1.0405088627966204	-0.34769596163947586	0.0	1.06819640137373	-0.22416360946649247	0.0	1.077727968847496	-0.2893431715589755	0.0	0.977323055710837	-0.3970915116932394	0.0	0.9291732571296091	-0.5301225106958107	0.0	0.9310704287141953	-0.6734668623492147	0.0	1.0745980871819028	-0.39858208268915307	0.0	1.0832340954527937	-0.5239828120988235	0.0	1.1109652703183857	-0.6405819988153392	0.0
78	2.626	0.9990002210524624	-0.6395830469345273	0.0	0.9782843385036215	-0.6395099254891456	0.0	1.0118802034109553	-0.8362009261314548	0.0	0.9708795703004084	-1.0406401891006074	0.0	1.0546515993068493	-1.0778683938349187	0.0	1.0296566956634976	-1.0848852533507372	0.0	0.9527462622074293	-1.068040728658431	0.0	1.0216863867267005	-0.6423518898082279	0.0	0.9831797195102189	-0.8349590167920357	0.0	0.9709257198046964	-1.0375753666147405	0.0	1.0521407634716642	-1.06939683217057	0.0	1.0450451484833174	-1.0637253909370563	0.0	0.9525310356491196	-1.0651316796817178	0.0	1.0428489104612555	-0.34993175725944803	0.0	1.0740633000158892	-0.22662810636479006	0.0	1.0823032484406188	-0.2916786942213535	0.0	0.9825931563640528	-0.39738513424862215	0.0	0.9319353261697927	-0.529358367696303	0.0	0.9315446943652199	-0.6728826587585699	0.0	1.0715718317810687	-0.3999008188741984	0.0	1.0773104819964936	-0.5256347224272614	0.0	1.1043636110906412	-0.6409329600818684	0.0
79	2.6596666666666664	1.0007146295511662	-0.6387478199906571	0.0	0.9810406443151352	-0.6390241706126611	0.0	1.0112518726392699	-0.8347061010460708	0.0	0.9673043702058284	-1.0398085204121523	0.0	1.0518044061777856	-1.0777986031993934	0.0	1.0267176511139338	-1.0847745012026295	0.0	0.9497551477315674	-1.0693987108541565	0.0	1.0217440182218962	-0.6415676026033137	0.0	0.9854693018532333	-0.8332749711968997	0.0	0.9712164843483918	-1.0355623759336314	0.0	1.052455624450167	-1.0689654680178515	0.0	1.0445235558809938	-1.0624753366102953	0.0	0.9535394841619552	-1.064640717919024	0.0	1.0441806831070597	-0.3513538096475802	0.0	1.0785660196162925	-0.22816649382654397	0.0	1.0853469574354382	-0.2934082269929116	0.0	0.9867751315359266	-0.39693094403159296	0.0	0.9343200576794765	-0.528439494962269	0.0	0.9327649986597176	-0.6722458299700639	0.0	1.068301412605435	-0.400320004105628	0.0	1.070668194434834	-0.5267269657499104	0.0	1.096922212836357	-0.6419755534361169	0.0
80	2.6933333333333334	1.0031425492310326	-0.638843569466458	0.0	0.984222798038256	-0.639204187260801	0.0	1.008501849999394	-0.8338023265610826	0.0	0.9648718030654759	-1.0396935010570978	0.0	1.049259944459209	-1.0774204104849996	0.0	1.0240493922462188	-1.0848492951814164	0.0	0.9482447771764663	-1.071258418926857	0.0	1.0225971895296782	-0.6413167079828889	0.0	0.9897548868023872	-0.8319629679837519	0.0	0.9714294980463581	-1.033473210188195	0.0	1.052274559844621	-1.068041113499076	0.0	1.043715417540214	-1.0613735355588603	0.0	0.9539236080753695	-1.0636353149784126	0.0	1.0446725894084514	-0.3521203268783898	0.0	1.081791466883171	-0.22896052734912126	0.0	1.0872993655436716	-0.29464597604899007	0.0	0.9901721551712553	-0.39603210599155575	0.0	0.9367552965425919	-0.5276732306950873	0.0	0.9346241987933739	-0.6718214030901754	0.0	1.0648141045942643	-0.39995162831437586	0.0	1.0632033393584226	-0.5271505701477812	0.0	1.0885727599246937	-0.6438201199903228	0.0
81	2.727	1.0056776654227977	-0.6397167245718891	0.0	0.9874551406871357	-0.6398938095953542	0.0	1.004878762531265	-0.8335581793268131	0.0	0.9634524240255263	-1.0401180744295577	0.0	1.0473958130100123	-1.0771087482571717	0.0	1.0218798566354474	-1.085061176907724	0.0	0.9476010597251276	-1.0732265229305393	0.0	1.0235736180330957	-0.6415208050852393	0.0	0.9944760360727025	-0.831329665735289	0.0	0.9715980927784992	-1.0318348766429775	0.0	1.0518822287671732	-1.066948156345182	0.0	1.0430212999791562	-1.060491708461756	0.0	0.9539005059564594	-1.0625887001060912	0.0	1.044570481268031	-0.3523930014867775	0.0	1.0839942594747343	-0.22930466358449153	0.0	1.0886823462940003	-0.29550379474492094	0.0	0.993149998373292	-0.3950766998325327	0.0	0.9396962902816706	-0.5273144865769186	0.0	0.9371113716067314	-0.6717895609054368	0.0	1.0610517068603034	-0.3990648553961774	0.0	1.0546187485336067	-0.5270416870463961	0.0	1.0790629943609789	-0.6465580718245852	0.0
82	2.7606666666666664	1.007630005852149	-0.6410066658196009	0.0	0.9903206674671161	-0.6407922077743218	0.0	1.0014829233862157	-0.83391444638652	0.0	0.962725443642116	-1.0408725767305378	0.0	1.0464308711157384	-1.0771161681811063	0.0	1.0203924517963174	-1.0853039167234932	0.0	0.947201367824057	-1.0749236983382893	0.0	1.0240402512108888	-0.6419727157959305	0.0	0.9984276909657582	-0.8314932468661663	0.0	0.9717030914306818	-1.0308656182666025	0.0	1.0515394020062259	-1.0659265653110563	0.0	1.0426873707469941	-1.0597566973585564	0.0	0.953582410513408	-1.0617348753134708	0.0	1.0441151186043087	-0.35234227880430125	0.0	1.0854628174019347	-0.22945316246895986	0.0	1.0898845198987643	-0.2960998844053864	0.0	0.9960230842108726	-0.39437772755968	0.0	0.9434481720831551	-0.5274836501199235	0.0	0.9403281819303644	-0.6722753086424454	0.0	1.056925966906326	-0.3979193359887414	0.0	1.0446903264956255	-0.5266793837599678	0.0	1.0682192995613156	-0.6501322940507269	0.0
83	2.7943333333333333	1.0084464298965123	-0.6423065499457069	0.0	0.9924607186648288	-0.6415650319057975	0.0	0.9989052061028835	-0.8347270852180659	0.0	0.9623489995649268	-1.0417738024591656	0.0	1.0462652823206955	-1.077540514087156	0.0	1.0195471580845634	-1.085524906706671	0.0	0.9466286250832777	-1.0760923268338278	0.0	1.0235857978971539	-0.6424225088642027	0.0	1.0011525948915352	-0.8323260150124226	0.0	0.9716897736143809	-1.0304508725959645	0.0	1.0514177481564908	-1.0651107858477253	0.0	1.0427694271622625	-1.0590223898762428	0.0	0.9530675439820337	-1.0610145542556062	0.0	1.0435045141797015	-0.3521723649706537	0.0	1.0864535570227785	-0.22955272376864452	0.0	1.091077602075635	-0.29656392564893513	0.0	0.9989554175531906	-0.3940681067263605	0.0	0.9480505135877373	-0.528224534354952	0.0	0.9445225598405431	-0.6733177648049156	0.0	1.052519604369525	-0.39670378387549704	0.0	1.033690665065352	-0.5263575315558279	0.0	1.056297892304911	-0.6541934267442592	0.0
84	2.828	1.0078317827105268	-0.6432739071591764	0.0	0.9935663301662117	-0.6419663447762259	0.0	0.9972674218530411	-0.8357951982116381	0.0	0.9620414118210188	-1.0426857789697288	0.0	1.046544894715644	-1.0783561753271995	0.0	1.0190738841650662	-1.0857551642212144	0.0	0.9457246425272983	-1.0766680703955138	0.0	1.0220356488847668	-0.6426430332047878	0.0	1.0027512979963797	-0.8335399987885493	0.0	0.9715320460833884	-1.0303323858486708	0.0	1.051608077165484	-1.0645838958319283	0.0	1.043173988180122	-1.0582507390336864	0.0	0.9525110264501899	-1.0602952136986774	0.0	1.0428672450202856	-0.35211076858970625	0.0	1.08713377326271	-0.22965843703611333	0.0	1.092265707954688	-0.29698683222714134	0.0	1.001930872145095	-0.39414083086952706	0.0	0.9533257943418398	-0.5295493704892925	0.0	0.9501103908128771	-0.6748324660740243	0.0	1.0481815490257869	-0.39557369850170077	0.0	1.0226184203573137	-0.5262708853891642	0.0	1.0442786715814485	-0.6581370858697968	0.0
85	2.8616666666666664	1.0057832739946042	-0.6436770689960205	0.0	0.993405877126099	-0.6418666579570788	0.0	0.9964057054626378	-0.8369130124611738	0.0	0.9616312554583873	-1.0434866788682453	0.0	1.0468600876363041	-1.0793896751674361	0.0	1.0186732934063862	-1.086015864013553	0.0	0.9445826233443022	-1.0767297575316541	0.0	1.0194229694800991	-0.6424882816175701	0.0	1.0035172417457694	-0.8348189287898972	0.0	0.9713010290744544	-1.0302893383111493	0.0	1.0520942650047933	-1.0644052368196197	0.0	1.0437124704563825	-1.057585176020321	0.0	0.952029470344405	-1.0595276524912027	0.0	1.0422402019889998	-0.3523428126327507	0.0	1.0875172481347697	-0.2297768916888959	0.0	1.093354913949602	-0.29741767383113704	0.0	1.0047702684270896	-0.39451851544107835	0.0	0.9590876634863017	-0.5313890806581713	0.0	0.9576720994033394	-0.6766136380270009	0.0	1.0443899303392445	-0.39468807571838826	0.0	1.0130609678347422	-0.5264825502724606	0.0	1.0339253325177418	-0.6613562042501713	0.0
